<?xml version="1.0" standalone="no"?>
<!DOCTYPE svg PUBLIC "-//W3C//DTD SVG 20010904//EN"
 "http://www.w3.org/TR/2001/REC-SVG-20010904/DTD/svg10.dtd">
<svg version="1.0" xmlns="http://www.w3.org/2000/svg"
 width="450.000000pt" height="450.000000pt" viewBox="0 0 450.000000 450.000000"
 preserveAspectRatio="xMidYMid meet">

<g transform="translate(0.000000,450.000000) scale(0.100000,-0.100000)"
fill="#000000" stroke="none">
<path d="M0 2250 l0 -2250 1165 0 c770 0 1165 3 1165 10 0 6 -7 10 -15 10 -11
0 -15 11 -15 40 0 30 -4 40 -16 40 -24 0 -44 26 -44 59 0 27 3 30 38 34 20 2
3 3 -38 2 -41 -1 -62 0 -45 2 16 3 34 8 40 13 6 5 72 13 148 19 253 21 503 83
700 175 42 20 78 36 81 36 7 0 168 95 210 123 223 153 415 349 575 585 63 93
163 300 211 432 85 238 128 556 109 804 -55 733 -476 1361 -1130 1683 -242
120 -506 188 -804 208 -149 9 -406 -17 -583 -61 -77 -19 -280 -86 -307 -102
-11 -7 -49 -26 -85 -42 -92 -44 -166 -84 -205 -114 -18 -14 -38 -26 -43 -26
-31 0 -299 -238 -406 -360 -27 -30 -40 -41 -30 -25 27 43 259 275 275 275 11
0 11 3 -1 11 -13 9 -12 10 3 5 19 -6 24 9 5 18 -7 3 -3 3 10 0 20 -5 22 -2 22
35 0 23 -4 41 -10 41 -5 0 -7 -13 -3 -32 4 -19 2 -29 -3 -25 -6 3 -10 18 -9
34 0 23 5 28 28 30 27 2 38 -12 15 -19 -7 -3 -8 -7 -2 -11 5 -3 16 -2 24 3 12
7 12 12 2 22 -18 18 -16 88 3 88 11 0 15 11 15 40 0 29 4 40 15 40 11 0 15 11
15 40 0 22 5 40 10 40 6 0 10 14 10 30 0 17 -4 30 -10 30 -5 0 -10 14 -10 30
0 17 5 30 10 30 6 0 10 7 10 16 0 10 6 14 15 10 8 -3 15 -1 15 4 0 6 11 10 25
10 22 0 25 4 25 39 0 22 5 41 13 44 6 2 9 8 5 12 -5 5 -17 -2 -28 -15 -11 -13
-23 -20 -28 -15 -4 4 -1 10 5 12 8 3 13 22 13 44 l0 39 -580 0 -580 0 0 -2250z
m2445 1719 c132 -19 368 -79 450 -114 17 -7 52 -21 79 -31 26 -10 54 -24 62
-31 12 -12 14 -137 14 -774 l0 -759 185 0 185 0 0 -125 0 -125 -187 0 -188 0
3 -202 c2 -112 1 -267 -3 -345 l-7 -143 -129 0 -129 0 0 345 0 345 -180 0
-180 0 0 -345 0 -345 -130 0 -130 0 0 700 0 700 130 0 130 0 0 -230 0 -230
180 0 180 0 0 653 0 652 -103 32 c-111 36 -184 49 -322 62 -84 7 -268 0 -332
-13 -16 -3 -44 -8 -63 -11 -42 -7 -247 -72 -275 -88 -11 -6 -49 -26 -85 -43
-36 -18 -110 -64 -165 -103 -71 -50 -102 -67 -108 -58 -5 7 -5 2 -1 -13 3 -14
4 -22 0 -19 -23 22 -285 -300 -312 -383 -10 -31 -53 -100 -72 -115 -10 -8 -11
-13 -4 -13 10 0 10 -5 2 -21 -7 -11 -9 -23 -6 -26 9 -10 -27 -63 -43 -63 -13
0 -13 2 1 13 15 12 34 52 20 44 -4 -3 -13 2 -21 10 -12 13 -11 14 9 8 15 -5
20 -4 16 4 -4 6 -3 11 3 11 6 0 8 15 6 35 -3 20 1 44 7 55 10 15 10 22 0 32
-14 14 -16 78 -2 78 6 0 10 27 10 60 0 37 -4 60 -11 60 -6 0 -9 -6 -6 -13 2
-7 1 -30 -3 -52 -5 -28 -7 -6 -7 70 0 61 5 113 10 116 5 4 9 20 9 35 0 16 8
38 17 49 15 18 15 19 -1 6 -9 -7 -22 -10 -28 -6 -5 3 -10 3 -10 -2 0 -4 -18
-28 -40 -52 -22 -24 -40 -49 -40 -55 0 -6 7 -3 15 7 12 17 13 15 11 -17 -2
-20 -7 -40 -11 -44 -4 -4 -4 3 -1 16 5 13 3 22 -3 22 -6 0 -11 -6 -12 -12 0
-10 -2 -10 -6 0 -2 6 -9 9 -15 6 -18 -11 20 51 46 75 14 14 26 30 26 36 0 16
48 60 57 52 3 -4 1 -7 -5 -7 -7 0 -12 -6 -12 -12 1 -7 10 -2 20 11 11 13 20
28 20 35 0 6 -5 4 -10 -4 -6 -9 -10 -10 -10 -3 0 11 49 71 96 118 44 44 113
105 119 105 3 0 18 11 33 25 15 14 31 25 35 25 5 0 16 7 25 16 15 16 179 124
187 124 2 0 21 11 41 25 20 14 43 25 50 25 7 0 37 11 66 24 133 60 443 131
603 139 71 3 169 -2 250 -14z m-1525 -143 c0 -2 -8 -10 -17 -17 -16 -13 -17
-12 -4 4 13 16 21 21 21 13z m2338 -171 c15 -14 30 -25 34 -25 8 0 13 -4 124
-98 168 -143 350 -407 439 -636 41 -106 49 -133 61 -201 3 -16 12 -52 20 -79
61 -209 61 -503 -1 -722 -8 -28 -17 -68 -19 -87 -3 -20 -19 -76 -36 -124 -17
-48 -33 -92 -34 -98 -10 -37 -96 -197 -149 -275 -124 -186 -241 -310 -392
-420 -33 -24 -68 -51 -77 -60 -9 -8 -34 -24 -55 -35 -21 -11 -40 -23 -43 -26
-3 -4 -45 -28 -95 -53 -101 -51 -267 -111 -365 -131 -272 -56 -267 -55 -498
-56 -34 0 -68 3 -74 7 -7 5 -24 8 -38 8 -17 1 -26 7 -28 21 -2 12 0 16 5 9 4
-6 26 -14 48 -17 27 -4 35 -3 25 3 -8 5 -22 10 -30 10 -16 0 -50 52 -50 76 0
8 -7 14 -15 14 -10 0 -15 10 -15 28 0 16 -8 34 -20 42 -25 18 -28 87 -5 96 16
6 11 24 -6 24 -6 0 -8 -4 -4 -9 6 -11 -33 -26 -42 -17 -4 3 1 6 10 6 22 0 22
19 0 36 -10 7 -13 14 -6 14 6 0 15 -5 18 -10 4 -6 15 -8 26 -5 12 4 19 2 19
-7 0 -10 2 -10 9 1 6 8 14 10 22 5 8 -5 24 -7 36 -5 13 1 28 -1 35 -5 13 -8
304 -9 328 -1 8 3 41 8 74 11 62 7 295 77 336 102 14 8 45 24 70 35 132 59
320 210 430 344 222 271 331 569 331 905 1 375 -138 717 -403 995 l-48 50 0
193 c0 127 4 192 10 192 6 0 23 -11 38 -25z m-2638 -195 c-17 -22 -34 -40 -37
-40 -2 0 10 18 27 40 17 22 34 40 37 40 2 0 -10 -18 -27 -40z m-117 -175 c-3
-9 -8 -14 -10 -11 -3 3 -2 9 2 15 9 16 15 13 8 -4z m-52 -92 c-12 -20 -14 -14
-5 12 4 9 9 14 11 11 3 -2 0 -13 -6 -23z m420 -46 c-10 -9 -11 -8 -5 6 3 10 9
15 12 12 3 -3 0 -11 -7 -18z m1549 -92 l0 -115 -270 0 -270 0 -2 -1026 c-3
-1018 -3 -1027 17 -1035 19 -7 19 -8 -1 -8 -30 -1 -34 14 -36 152 -1 87 -3
109 -8 77 -6 -38 -7 -40 -8 -13 -1 18 -7 55 -13 83 -8 39 -15 50 -30 50 -16 0
-19 7 -19 40 0 22 -4 40 -10 40 -5 0 -10 23 -10 50 0 28 -5 50 -10 50 -20 0
-59 54 -47 63 9 5 7 11 -5 20 -11 9 -21 38 -26 78 -9 64 -10 64 -13 19 -2 -25
-6 11 -9 80 l-6 125 -2 -122 c-1 -76 -6 -123 -12 -123 -7 0 -10 -147 -8 -444
2 -244 0 -442 -4 -439 -5 2 -8 517 -8 1144 l0 1139 -195 0 -195 0 0 115 0 115
600 0 600 0 0 -115z m-1647 55 c-15 -27 -29 -48 -31 -45 -5 5 46 95 53 95 3 0
-7 -22 -22 -50z m-350 15 c-3 -9 -8 -14 -10 -11 -3 3 -2 9 2 15 9 16 15 13 8
-4z m290 -132 c-7 -2 -13 -12 -13 -21 -1 -15 -30 -64 -30 -50 0 19 32 78 43
77 9 0 9 -2 0 -6z m-43 -103 c0 -5 -2 -10 -4 -10 -3 0 -8 5 -11 10 -3 6 -1 10
4 10 6 0 11 -4 11 -10z m-57 -155 c-3 -9 -8 -14 -10 -11 -3 3 -2 9 2 15 9 16
15 13 8 -4z m281 -1 c3 -8 2 -12 -4 -9 -6 3 -10 10 -10 16 0 14 7 11 14 -7z
m11 -71 c-23 -59 -37 -116 -41 -173 -3 -36 -9 -69 -14 -74 -5 -5 -6 14 -3 45
3 30 5 61 5 69 0 8 3 24 8 35 19 46 29 87 24 100 -4 10 0 15 11 15 12 0 15 -5
10 -17z m-368 -340 c-2 -21 -4 -6 -4 32 0 39 2 55 4 38 2 -18 2 -50 0 -70z
m313 14 c0 -30 -7 -60 -15 -71 -15 -19 -15 -19 -15 1 0 12 5 25 11 29 7 4 9
24 6 56 -4 30 -2 46 3 43 6 -4 10 -30 10 -58z m-323 -89 c-3 -8 -6 -5 -6 6 -1
11 2 17 5 13 3 -3 4 -12 1 -19z m326 -110 c3 -48 3 -89 -1 -92 -4 -2 -8 33
-10 77 -1 45 -5 91 -8 102 -4 13 -3 17 4 10 5 -5 12 -49 15 -97z m-311 -10 c2
-21 0 -38 -4 -38 -4 0 -8 21 -7 48 1 52 6 48 11 -10z m895 -1185 c-2 -32 -3
-8 -3 52 0 61 1 87 3 58 2 -29 2 -78 0 -110z m453 -103 c0 -11 -2 -20 -4 -20
-2 0 -6 9 -9 20 -3 11 -1 20 4 20 5 0 9 -9 9 -20z m34 12 c3 -5 -1 -9 -9 -9
-8 0 -15 4 -15 9 0 4 4 8 9 8 6 0 12 -4 15 -8z m-54 -22 c0 -5 -5 -10 -11 -10
-5 0 -7 5 -4 10 3 6 8 10 11 10 2 0 4 -4 4 -10z m-55 -230 c3 -5 1 -10 -4 -10
-6 0 -11 5 -11 10 0 6 2 10 4 10 3 0 8 -4 11 -10z m145 -26 c0 -8 -19 -13 -24
-6 -3 5 1 9 9 9 8 0 15 -2 15 -3z m35 -4 c-3 -5 -2 -10 4 -10 5 0 12 6 14 13
3 7 6 5 6 -5 1 -11 -6 -18 -18 -18 -24 0 -36 16 -19 23 19 8 20 8 13 -3z m55
-340 c13 -9 13 -10 0 -9 -8 0 -24 4 -35 9 l-20 9 20 0 c11 0 27 -4 35 -9z
m135 -10 c31 -7 24 -7 -30 -3 -38 3 -72 7 -74 9 -8 7 64 3 104 -6z"/>
<path d="M1000 3420 c-8 -26 -7 -41 2 -32 6 6 8 16 5 24 -3 7 -6 11 -7 8z"/>
<path d="M1024 3400 c0 -13 4 -16 10 -10 7 7 7 13 0 20 -6 6 -10 3 -10 -10z"/>
<path d="M980 3050 c0 -5 5 -10 10 -10 6 0 10 5 10 10 0 6 -4 10 -10 10 -5 0
-10 -4 -10 -10z"/>
<path d="M1055 3049 c-4 -6 -5 -12 -2 -15 2 -3 7 2 10 11 7 17 1 20 -8 4z"/>
<path d="M978 2958 c3 -11 -1 -24 -9 -30 -12 -8 -11 -9 1 -5 8 2 16 13 18 25
2 14 8 20 15 16 7 -4 8 -3 4 1 -16 18 -35 13 -29 -7z"/>
<path d="M955 2900 c-3 -5 -1 -18 4 -27 6 -10 11 -13 11 -6 0 6 3 18 6 27 7
17 -11 22 -21 6z"/>
<path d="M2008 833 c7 -3 16 -2 19 1 4 3 -2 6 -13 5 -11 0 -14 -3 -6 -6z"/>
<path d="M1100 4280 c0 -11 5 -20 10 -20 6 0 10 9 10 20 0 11 -4 20 -10 20 -5
0 -10 -9 -10 -20z"/>
<path d="M1124 3970 c0 -13 4 -16 10 -10 7 7 7 13 0 20 -6 6 -10 3 -10 -10z"/>
<path d="M1046 3925 c4 -9 -3 -19 -20 -26 -14 -7 -26 -18 -26 -25 0 -7 16 2
35 18 19 17 32 35 29 40 -9 14 -24 9 -18 -7z"/>
</g>
</svg>
